<mxfile host="app.diagrams.net" modified="2023-10-25T10:55:08.229Z" agent="Mozilla/5.0 (Windows NT 10.0; Win64; x64) AppleWebKit/537.36 (KHTML, like Gecko) Chrome/118.0.0.0 Safari/537.36 Edg/118.0.2088.57" etag="IE-t6MklXOEQMJDAXMes" version="22.0.7" type="github">
  <diagram name="Seite-1" id="xWN3o00qyPEZJ9LrFE_g">
    <mxGraphModel dx="658" dy="584" grid="1" gridSize="10" guides="1" tooltips="1" connect="1" arrows="1" fold="1" page="1" pageScale="1" pageWidth="1169" pageHeight="827" math="0" shadow="0">
      <root>
        <mxCell id="0" />
        <mxCell id="1" parent="0" />
        <mxCell id="ORXUa8jjNet1NgsHZWgc-5" value="" style="edgeStyle=orthogonalEdgeStyle;rounded=0;orthogonalLoop=1;jettySize=auto;html=1;" edge="1" parent="1" source="ORXUa8jjNet1NgsHZWgc-2" target="ORXUa8jjNet1NgsHZWgc-3">
          <mxGeometry relative="1" as="geometry" />
        </mxCell>
        <mxCell id="ORXUa8jjNet1NgsHZWgc-2" value="Tech Provider" style="html=1;shadow=0;dashed=0;align=center;verticalAlign=middle;shape=mxgraph.arrows2.arrow;dy=0;dx=10;notch=0;fontFamily=Rubik light;" vertex="1" parent="1">
          <mxGeometry x="200" y="320" width="100" height="30" as="geometry" />
        </mxCell>
        <mxCell id="ORXUa8jjNet1NgsHZWgc-6" value="" style="edgeStyle=orthogonalEdgeStyle;rounded=0;orthogonalLoop=1;jettySize=auto;html=1;" edge="1" parent="1" source="ORXUa8jjNet1NgsHZWgc-3" target="ORXUa8jjNet1NgsHZWgc-4">
          <mxGeometry relative="1" as="geometry" />
        </mxCell>
        <mxCell id="ORXUa8jjNet1NgsHZWgc-3" value="Maschinenbauer" style="html=1;shadow=0;dashed=0;align=center;verticalAlign=middle;shape=mxgraph.arrows2.arrow;dy=0;dx=10;notch=0;fontFamily=Rubik light;" vertex="1" parent="1">
          <mxGeometry x="370" y="320" width="100" height="30" as="geometry" />
        </mxCell>
        <mxCell id="ORXUa8jjNet1NgsHZWgc-4" value="Clients" style="html=1;shadow=0;dashed=0;align=center;verticalAlign=middle;shape=mxgraph.arrows2.arrow;dy=0;dx=10;notch=0;fontFamily=Rubik light;" vertex="1" parent="1">
          <mxGeometry x="520" y="320" width="100" height="30" as="geometry" />
        </mxCell>
        <mxCell id="ORXUa8jjNet1NgsHZWgc-7" value="" style="endArrow=classic;html=1;rounded=0;exitX=0.583;exitY=-0.056;exitDx=0;exitDy=0;exitPerimeter=0;entryX=0;entryY=0;entryDx=45;entryDy=0;entryPerimeter=0;" edge="1" parent="1" source="ORXUa8jjNet1NgsHZWgc-2" target="ORXUa8jjNet1NgsHZWgc-4">
          <mxGeometry width="50" height="50" relative="1" as="geometry">
            <mxPoint x="510" y="520" as="sourcePoint" />
            <mxPoint x="560" y="470" as="targetPoint" />
            <Array as="points">
              <mxPoint x="258" y="240" />
              <mxPoint x="565" y="240" />
            </Array>
          </mxGeometry>
        </mxCell>
        <mxCell id="ORXUa8jjNet1NgsHZWgc-8" value="&lt;font face=&quot;Rubik light&quot; style=&quot;font-size: 18px;&quot;&gt;CHASE: development of smart controllers&lt;/font&gt;" style="rounded=0;whiteSpace=wrap;html=1;" vertex="1" parent="1">
          <mxGeometry x="160" y="410" width="500" height="34" as="geometry" />
        </mxCell>
        <mxCell id="ORXUa8jjNet1NgsHZWgc-9" value="" style="endArrow=classic;html=1;rounded=0;entryX=0.4;entryY=1;entryDx=0;entryDy=0;entryPerimeter=0;" edge="1" parent="1" source="ORXUa8jjNet1NgsHZWgc-8" target="ORXUa8jjNet1NgsHZWgc-3">
          <mxGeometry width="50" height="50" relative="1" as="geometry">
            <mxPoint x="440" y="280" as="sourcePoint" />
            <mxPoint x="410" y="360" as="targetPoint" />
          </mxGeometry>
        </mxCell>
        <mxCell id="ORXUa8jjNet1NgsHZWgc-10" value="" style="endArrow=classic;html=1;rounded=0;entryX=0.4;entryY=1;entryDx=0;entryDy=0;entryPerimeter=0;" edge="1" parent="1">
          <mxGeometry width="50" height="50" relative="1" as="geometry">
            <mxPoint x="566.5" y="410" as="sourcePoint" />
            <mxPoint x="566.5" y="350" as="targetPoint" />
          </mxGeometry>
        </mxCell>
        <mxCell id="ORXUa8jjNet1NgsHZWgc-11" value="" style="endArrow=classic;html=1;rounded=0;entryX=0.4;entryY=1;entryDx=0;entryDy=0;entryPerimeter=0;" edge="1" parent="1">
          <mxGeometry width="50" height="50" relative="1" as="geometry">
            <mxPoint x="257.5" y="410" as="sourcePoint" />
            <mxPoint x="257.5" y="350" as="targetPoint" />
          </mxGeometry>
        </mxCell>
        <mxCell id="ORXUa8jjNet1NgsHZWgc-12" value="&lt;font face=&quot;Rubik light&quot; style=&quot;font-size: 18px;&quot;&gt;CHASE Lab: Playground&lt;/font&gt;" style="rounded=0;whiteSpace=wrap;html=1;" vertex="1" parent="1">
          <mxGeometry x="160" y="450" width="300" height="34" as="geometry" />
        </mxCell>
        <mxCell id="ORXUa8jjNet1NgsHZWgc-14" value="&lt;font face=&quot;Rubik light&quot; style=&quot;font-size: 18px;&quot;&gt;CHASE Consulting&lt;/font&gt;" style="rounded=0;whiteSpace=wrap;html=1;" vertex="1" parent="1">
          <mxGeometry x="470" y="450" width="190" height="34" as="geometry" />
        </mxCell>
        <mxCell id="ORXUa8jjNet1NgsHZWgc-17" value="Process&lt;br&gt;Design" style="rounded=1;whiteSpace=wrap;html=1;fontSize=16;fontFamily=Rubik light;" vertex="1" parent="1">
          <mxGeometry x="420" y="660" width="120" height="60" as="geometry" />
        </mxCell>
        <mxCell id="ORXUa8jjNet1NgsHZWgc-18" value="Process Optimization" style="rounded=1;whiteSpace=wrap;html=1;fontSize=16;fontFamily=Rubik light;" vertex="1" parent="1">
          <mxGeometry x="510" y="550" width="120" height="60" as="geometry" />
        </mxCell>
        <mxCell id="ORXUa8jjNet1NgsHZWgc-22" value="" style="verticalLabelPosition=bottom;verticalAlign=top;html=1;shape=mxgraph.basic.acute_triangle;dx=0.5;" vertex="1" parent="1">
          <mxGeometry x="520" y="610" width="100" height="70" as="geometry" />
        </mxCell>
        <mxCell id="ORXUa8jjNet1NgsHZWgc-23" value="Process&lt;br&gt;Control" style="rounded=1;whiteSpace=wrap;html=1;fontSize=16;fontFamily=Rubik light;" vertex="1" parent="1">
          <mxGeometry x="585" y="660" width="120" height="60" as="geometry" />
        </mxCell>
        <mxCell id="ORXUa8jjNet1NgsHZWgc-24" value="" style="verticalLabelPosition=bottom;verticalAlign=top;html=1;shape=mxgraph.basic.acute_triangle;dx=0.5;" vertex="1" parent="1">
          <mxGeometry x="318" y="827" width="604" height="430" as="geometry" />
        </mxCell>
        <mxCell id="ORXUa8jjNet1NgsHZWgc-26" value="" style="line;strokeWidth=1;rotatable=0;dashed=0;labelPosition=right;align=left;verticalAlign=middle;spacingTop=0;spacingLeft=6;points=[];portConstraint=eastwest;" vertex="1" parent="1">
          <mxGeometry x="541" y="972" width="150" height="10" as="geometry" />
        </mxCell>
        <mxCell id="ORXUa8jjNet1NgsHZWgc-29" value="Technology vaidation in &lt;br&gt;relevant environment (TRL 5)" style="rounded=1;whiteSpace=wrap;html=1;fontSize=16;fontFamily=Rubik light;strokeColor=none;fillColor=none;" vertex="1" parent="1">
          <mxGeometry x="510" y="990" width="208.5" height="60" as="geometry" />
        </mxCell>
        <mxCell id="ORXUa8jjNet1NgsHZWgc-30" value="Lab scale: Technology development / validation (TRL 4)" style="rounded=1;whiteSpace=wrap;html=1;fontSize=16;fontFamily=Rubik light;strokeColor=none;fillColor=none;" vertex="1" parent="1">
          <mxGeometry x="471" y="1130" width="280" height="37" as="geometry" />
        </mxCell>
        <mxCell id="ORXUa8jjNet1NgsHZWgc-32" value="Technology implemented in equipment (TRL 4 - 5)" style="rounded=1;whiteSpace=wrap;html=1;fontSize=16;fontFamily=Rubik light;strokeColor=none;fillColor=none;" vertex="1" parent="1">
          <mxGeometry x="500" y="1060" width="240" height="60" as="geometry" />
        </mxCell>
        <mxCell id="ORXUa8jjNet1NgsHZWgc-33" value="" style="line;strokeWidth=1;rotatable=0;dashed=0;labelPosition=right;align=left;verticalAlign=middle;spacingTop=0;spacingLeft=6;points=[];portConstraint=eastwest;" vertex="1" parent="1">
          <mxGeometry x="430" y="1120" width="370" height="10" as="geometry" />
        </mxCell>
        <mxCell id="ORXUa8jjNet1NgsHZWgc-34" value="" style="line;strokeWidth=1;rotatable=0;dashed=0;labelPosition=right;align=left;verticalAlign=middle;spacingTop=0;spacingLeft=6;points=[];portConstraint=eastwest;" vertex="1" parent="1">
          <mxGeometry x="480" y="1053" width="260" height="10" as="geometry" />
        </mxCell>
        <mxCell id="ORXUa8jjNet1NgsHZWgc-35" value="Technology &lt;br&gt;demonstration&lt;br&gt;(TRL 6)" style="rounded=1;whiteSpace=wrap;html=1;fontSize=16;fontFamily=Rubik light;strokeColor=none;fillColor=none;" vertex="1" parent="1">
          <mxGeometry x="516.75" y="912" width="195" height="60" as="geometry" />
        </mxCell>
        <mxCell id="ORXUa8jjNet1NgsHZWgc-36" value="" style="line;strokeWidth=1;rotatable=0;dashed=0;labelPosition=right;align=left;verticalAlign=middle;spacingTop=0;spacingLeft=6;points=[];portConstraint=eastwest;" vertex="1" parent="1">
          <mxGeometry x="390" y="1180" width="440" height="10" as="geometry" />
        </mxCell>
        <mxCell id="ORXUa8jjNet1NgsHZWgc-37" value="Proof of concept: Technology demonstrated on simulated data (TRL 3)" style="rounded=1;whiteSpace=wrap;html=1;fontSize=16;fontFamily=Rubik light;strokeColor=none;fillColor=none;" vertex="1" parent="1">
          <mxGeometry x="440" y="1190" width="370" height="60" as="geometry" />
        </mxCell>
      </root>
    </mxGraphModel>
  </diagram>
</mxfile>
